<?xml version="1.0" encoding="iso-8859-1"?>
<!-- Generator: Adobe Illustrator 19.0.0, SVG Export Plug-In . SVG Version: 6.00 Build 0)  -->
<svg version="1.1" id="Capa_1" xmlns="http://www.w3.org/2000/svg" xmlns:xlink="http://www.w3.org/1999/xlink" x="0px" y="0px"
	 viewBox="0 0 512 512" style="enable-background:new 0 0 512 512;" xml:space="preserve">
<g>
	<g>
		<path d="M504.396,132.476H118.333c-4.199,0-7.604,3.404-7.604,7.604c0,4.2,3.405,7.604,7.604,7.604h226.384v18.756
			c0,4.2,3.404,7.604,7.604,7.604s7.604-3.404,7.604-7.604v-18.756h136.867v216.633H359.924V345.56c0-4.2-3.404-7.604-7.604-7.604
			s-7.604,3.404-7.604,7.604v18.756H15.208V147.684h19.436c4.199,0,7.604-3.404,7.604-7.604c0-4.2-3.405-7.604-7.604-7.604H7.604
			C3.405,132.476,0,135.88,0,140.08v231.84c0,4.2,3.405,7.604,7.604,7.604h496.792c4.2,0,7.604-3.404,7.604-7.604V140.08
			C512,135.879,508.596,132.476,504.396,132.476z"/>
	</g>
</g>
<g>
	<g>
		<path d="M92.684,197.824H52.866c-2.635,0-3.859,2.824-3.859,5.46c0,3.011,1.411,5.553,3.859,5.553h13.838v53.938
			c0,2.541,3.012,3.859,6.119,3.859c3.012,0,6.119-1.317,6.119-3.859v-53.938h13.743c2.448,0,3.86-2.635,3.86-5.553
			C96.544,200.649,95.32,197.824,92.684,197.824z"/>
	</g>
</g>
<g>
	<g>
		<path d="M109.347,197.824c-3.106,0-6.119,1.129-6.119,3.766v61.187c0,2.541,3.012,3.859,6.119,3.859
			c3.012,0,6.119-1.317,6.119-3.859V201.59C115.466,198.954,112.359,197.824,109.347,197.824z"/>
	</g>
</g>
<g>
	<g>
		<path d="M164.04,242.536c-3.201,0-5.836,0.941-6.024,3.859c-0.283,3.954-1.036,10.073-9.602,10.073
			c-6.495,0-10.072-3.483-10.072-10.825v-26.262c0-7.341,3.577-10.825,9.884-10.825c8.942,0,9.601,6.401,9.79,9.318
			c0.094,2.824,2.636,3.859,6.119,3.859c4.142,0,6.119-1.129,6.119-6.024c0-10.92-9.318-17.885-22.403-17.885
			c-11.86,0-21.744,5.836-21.744,21.557v26.262c0,15.721,9.79,21.557,21.65,21.557c13.178,0,22.498-7.248,22.498-18.638
			C170.253,243.76,168.276,242.536,164.04,242.536z"/>
	</g>
</g>
<g>
	<g>
		<path d="M224.474,258.823l-20.522-31.253l16.85-21.085c0.659-0.848,0.753-1.695,0.753-2.354c0-3.105-3.954-6.306-7.061-6.306
			c-1.318,0-2.448,0.47-3.389,1.788l-20.333,27.675V201.59c0-2.636-3.107-3.766-6.119-3.766c-3.107,0-6.119,1.129-6.119,3.766h0.002
			v61.187c0,2.541,3.012,3.859,6.119,3.859c3.012,0,6.119-1.317,6.119-3.859v-18.45l5.082-6.401l17.697,26.828
			c1.035,1.694,2.636,2.353,4.236,2.353c3.577,0,7.342-3.105,7.342-6.119C225.133,260.235,224.944,259.482,224.474,258.823z"/>
	</g>
</g>
<g>
	<g>
		<path d="M269.375,255.903h-26.639v-18.921h14.308c2.636,0,3.86-2.541,3.86-4.706c0-2.541-1.412-4.894-3.86-4.894h-14.308v-18.827
			h26.639c2.446,0,3.859-2.541,3.859-5.46c0-2.541-1.223-5.271-3.859-5.271h-33.511c-2.729,0-5.365,1.317-5.365,3.859v61.092
			c0,2.541,2.635,3.859,5.365,3.859h33.511c2.635,0,3.859-2.729,3.859-5.271C273.234,258.445,271.822,255.903,269.375,255.903z"/>
	</g>
</g>
<g>
	<g>
		<path d="M319.55,197.824h-39.817c-2.636,0-3.86,2.824-3.86,5.46c0,3.011,1.411,5.553,3.86,5.553h13.837v53.938
			c0,2.541,3.011,3.859,6.119,3.859c3.011,0,6.119-1.317,6.119-3.859v-53.938h13.743c2.446,0,3.859-2.635,3.859-5.553
			C323.409,200.649,322.186,197.824,319.55,197.824z"/>
	</g>
</g>
<g>
	<g>
		<path d="M352.32,285.235c-4.2,0-7.604,3.404-7.604,7.604v26.36c0,4.2,3.404,7.604,7.604,7.604s7.604-3.404,7.604-7.604v-26.36
			C359.924,288.639,356.52,285.235,352.32,285.235z"/>
	</g>
</g>
<g>
	<g>
		<path d="M352.32,232.512c-4.2,0-7.604,3.404-7.604,7.604v26.36c0,4.2,3.404,7.604,7.604,7.604s7.604-3.404,7.604-7.604v-26.36
			C359.924,235.916,356.52,232.512,352.32,232.512z"/>
	</g>
</g>
<g>
	<g>
		<path d="M352.32,182.496c-4.2,0-7.604,3.404-7.604,7.604v26.36c0,4.199,3.405,7.604,7.604,7.604c4.2,0,7.604-3.404,7.604-7.604
			V190.1C359.924,185.899,356.52,182.496,352.32,182.496z"/>
	</g>
</g>
<g>
	<g>
		<path d="M299.13,291.521H147.52c-4.199,0-7.604,3.404-7.604,7.604s3.405,7.604,7.604,7.604h144.006v20.239H64.215v-20.239h14.363
			c4.199,0,7.604-3.404,7.604-7.604s-3.405-7.604-7.604-7.604H56.611c-4.199,0-7.604,3.404-7.604,7.604v35.447
			c0,4.2,3.405,7.604,7.604,7.604H299.13c4.2,0,7.604-3.404,7.604-7.604v-35.447C306.734,294.925,303.33,291.521,299.13,291.521z"/>
	</g>
</g>
<g>
	<g>
		<path d="M479.6,228.632c-2.971-2.969-7.784-2.969-10.754,0l-45.331,45.332l-19.689-19.688c-2.969-2.969-7.783-2.97-10.753,0.001
			c-2.97,2.97-2.97,7.784,0.001,10.753l25.066,25.065c1.482,1.484,3.429,2.227,5.374,2.227c1.946,0,3.892-0.742,5.378-2.226
			l50.708-50.708C482.57,236.416,482.57,231.602,479.6,228.632z"/>
	</g>
</g>
<g>
</g>
<g>
</g>
<g>
</g>
<g>
</g>
<g>
</g>
<g>
</g>
<g>
</g>
<g>
</g>
<g>
</g>
<g>
</g>
<g>
</g>
<g>
</g>
<g>
</g>
<g>
</g>
<g>
</g>
</svg>
